<svg xmlns="http://www.w3.org/2000/svg" width="765.072" height="162.879" viewBox="0 0 765.072 162.879">
  <g id="Gruppe_1035" data-name="Gruppe 1035" transform="translate(-203.121 -330.76)">
    <g id="Gruppe_629" data-name="Gruppe 629" transform="translate(203.121 347.872)">
      <g id="Gruppe_621" data-name="Gruppe 621">
        <path id="Pfad_4312" data-name="Pfad 4312" d="M252.654,284.893l-40.342,61.015h40.246v1.837H203.121v-1.47l40.342-61.015H204.411v-1.84h48.243Z" transform="translate(-203.121 -283.42)" fill="#20362a"/>
      </g>
      <g id="Gruppe_622" data-name="Gruppe 622" transform="translate(57.065)">
        <path id="Pfad_4313" data-name="Pfad 4313" d="M265.2,328.723H233.036l-8.361,19.023H222.1l28.211-64.326H253.9l28.117,64.326h-8.545Zm-.827-1.84-15.252-35.009L233.77,326.883Z" transform="translate(-222.101 -283.42)" fill="#20362a"/>
      </g>
      <g id="Gruppe_623" data-name="Gruppe 623" transform="translate(126.7)">
        <path id="Pfad_4314" data-name="Pfad 4314" d="M299.567,283.42v64.326h-8.178v-31.7H253.44v31.7h-8.178V283.42h8.178V314.2h37.949V283.42Z" transform="translate(-245.262 -283.42)" fill="#20362a"/>
      </g>
      <g id="Gruppe_624" data-name="Gruppe 624" transform="translate(197.655)">
        <path id="Pfad_4315" data-name="Pfad 4315" d="M321.79,283.42v64.326h-3.124l-47.6-57.708v57.708h-2.207V283.42h6.891l43.83,53.3v-53.3Z" transform="translate(-268.862 -283.42)" fill="#20362a"/>
      </g>
      <g id="Gruppe_625" data-name="Gruppe 625" transform="translate(260.261)">
        <path id="Pfad_4316" data-name="Pfad 4316" d="M332.781,328.723H300.62l-8.361,19.023h-2.574L317.9,283.42h3.587L349.6,347.746h-8.545Zm-.827-1.84L316.7,291.874l-15.346,35.009Z" transform="translate(-289.685 -283.42)" fill="#20362a"/>
      </g>
      <g id="Gruppe_626" data-name="Gruppe 626" transform="translate(329.893)">
        <path id="Pfad_4317" data-name="Pfad 4317" d="M366.142,347.746h-9.374a16.338,16.338,0,0,1-4.778-5.331l-9.738-17.092a13.228,13.228,0,0,0-5.607-5.144H321.023v27.567h-8.178V283.42h25.27c13.325,0,23.343,7.811,23.343,18.286,0,9.558-8,16.816-19.3,18.2,4.408,1.287,7.994,3.584,9.831,6.8l8.271,14.059A22.784,22.784,0,0,0,366.142,347.746Zm-45.12-29.4h15.529c9.835,0,16.359-6.524,16.359-16.542s-6.524-16.539-16.359-16.539H321.023Z" transform="translate(-312.845 -283.42)" fill="#20362a"/>
      </g>
      <g id="Gruppe_627" data-name="Gruppe 627" transform="translate(389.796)">
        <path id="Pfad_4318" data-name="Pfad 4318" d="M382.3,284.893,341.96,345.909h40.249v1.837h-49.44v-1.47l40.342-61.015H334.056v-1.84H382.3Z" transform="translate(-332.769 -283.42)" fill="#20362a"/>
      </g>
      <g id="Gruppe_628" data-name="Gruppe 628" transform="translate(446.78)">
        <path id="Pfad_4319" data-name="Pfad 4319" d="M403.273,285.26h-21.6v62.486H373.5V285.26H351.722v-1.84h51.551Z" transform="translate(-351.722 -283.42)" fill="#20362a"/>
      </g>
    </g>
    <g id="Gruppe_638" data-name="Gruppe 638" transform="translate(267.332 425.346)">
      <g id="Gruppe_630" data-name="Gruppe 630" transform="translate(0 0.92)">
        <path id="Pfad_4320" data-name="Pfad 4320" d="M274.011,310.964,233.669,371.98h40.249v1.837h-49.44v-1.47l40.342-61.015H225.768v-1.837h48.243Z" transform="translate(-224.478 -309.494)" fill="#20362a"/>
      </g>
      <g id="Gruppe_631" data-name="Gruppe 631" transform="translate(51.653)">
        <path id="Pfad_4321" data-name="Pfad 4321" d="M241.658,342.269c0-18.839,14.335-33.081,33.448-33.081,19.206,0,33.541,14.242,33.541,33.081s-14.335,33.081-33.541,33.081C255.993,375.351,241.658,361.109,241.658,342.269Zm58.445,0c0-18.839-9.925-31.244-25-31.244-14.976,0-24.9,12.405-24.9,31.244s9.925,31.244,24.9,31.244C290.178,373.514,300.1,361.109,300.1,342.269Z" transform="translate(-241.658 -309.188)" fill="#20362a"/>
      </g>
      <g id="Gruppe_632" data-name="Gruppe 632" transform="translate(118.799 0.92)">
        <path id="Pfad_4322" data-name="Pfad 4322" d="M315.542,311.331H293.948v62.486h-8.181V311.331H263.991v-1.837h51.551Z" transform="translate(-263.991 -309.494)" fill="#20362a"/>
      </g>
      <g id="Gruppe_633" data-name="Gruppe 633" transform="translate(177.135 0.92)">
        <path id="Pfad_4323" data-name="Pfad 4323" d="M332.924,310.964,292.585,371.98h40.249v1.837h-49.44v-1.47l40.342-61.015H284.681v-1.837h48.244Z" transform="translate(-283.394 -309.494)" fill="#20362a"/>
      </g>
      <g id="Gruppe_634" data-name="Gruppe 634" transform="translate(237.189 0.92)">
        <path id="Pfad_4324" data-name="Pfad 4324" d="M367.964,309.494v64.323h-8.175V313.538l-26.374,43.556h-1.47l-26.374-43.556v60.279h-2.2V309.494h8.911L335.9,348.366l23.526-38.872Z" transform="translate(-303.368 -309.494)" fill="#20362a"/>
      </g>
      <g id="Gruppe_635" data-name="Gruppe 635" transform="translate(311.553 0.92)">
        <path id="Pfad_4325" data-name="Pfad 4325" d="M371.2,354.794H339.037l-8.361,19.023H328.1l28.211-64.323H359.9l28.114,64.323h-8.545Zm-.827-1.837-15.252-35.012-15.345,35.012Z" transform="translate(-328.102 -309.494)" fill="#20362a"/>
      </g>
      <g id="Gruppe_636" data-name="Gruppe 636" transform="translate(381.188 0.92)">
        <path id="Pfad_4326" data-name="Pfad 4326" d="M404.194,309.494v64.323h-3.127l-47.6-57.708v57.708h-2.207V309.494h6.894l43.83,53.295V309.494Z" transform="translate(-351.263 -309.494)" fill="#20362a"/>
      </g>
      <g id="Gruppe_637" data-name="Gruppe 637" transform="translate(450.721 0.92)">
        <path id="Pfad_4327" data-name="Pfad 4327" d="M427.321,309.494v64.323h-3.127l-47.6-57.708v57.708H374.39V309.494h6.894l43.83,53.295V309.494Z" transform="translate(-374.39 -309.494)" fill="#20362a"/>
      </g>
    </g>
    <g id="Gruppe_643" data-name="Gruppe 643" transform="translate(801.984 330.76)">
      <g id="Gruppe_639" data-name="Gruppe 639" transform="translate(63.084 57.53)">
        <path id="Pfad_4328" data-name="Pfad 4328" d="M445.547,271.907,405.205,332.92h40.249v1.84h-49.44v-1.47l40.342-61.015H397.3v-1.84h48.243Z" transform="translate(-396.014 -270.434)" fill="#20362a"/>
      </g>
      <g id="Gruppe_640" data-name="Gruppe 640" transform="translate(55.171 44.213)">
        <path id="Pfad_4329" data-name="Pfad 4329" d="M442.912,267.475,402.57,328.491h40.249v1.837H393.382v-1.47l40.342-61.015H394.669v-1.837h48.243Z" transform="translate(-393.382 -266.005)" fill="#20362a"/>
      </g>
      <g id="Gruppe_641" data-name="Gruppe 641">
        <path id="Pfad_4330" data-name="Pfad 4330" d="M389.584,295.105l-11-2.508,2.541,6.055-1.2.5-3.256-7.763,1.113-.469,11,2.507-2.583-6.167,1.2-.5,3.3,7.877Z" transform="translate(-371.731 -180.135)" fill="#20362a"/>
        <path id="Pfad_4331" data-name="Pfad 4331" d="M377.576,294.028l-1.942-7.405,1.254-.331,1.578,6,3.641-.959-1.542-5.881,1.257-.328,1.539,5.884,3.9-1.022-1.576-6,1.254-.325,1.942,7.405Z" transform="translate(-373.824 -186.37)" fill="#20362a"/>
        <path id="Pfad_4332" data-name="Pfad 4332" d="M378.112,288.78l9.363-.926.144,1.443-11.608,1.152-.144-1.479,8.509-7.595-9.176.911-.141-1.443,11.605-1.151.138,1.392Z" transform="translate(-374.982 -194.33)" fill="#20362a"/>
        <path id="Pfad_4333" data-name="Pfad 4333" d="M376.541,281.126l-.216,3.7-1.293-.078.511-8.854,1.3.072-.216,3.713,10.382.6-.081,1.449Z" transform="translate(-375.032 -201.959)" fill="#20362a"/>
        <path id="Pfad_4334" data-name="Pfad 4334" d="M383.038,277.464l-.466,2.285,4.549.938-.295,1.422-11.455-2.357.947-4.6a3.4,3.4,0,0,1,4.188-2.88,3.236,3.236,0,0,1,2.724,3.653l5.31-2.126-.349,1.681Zm-5.484-1.879-.616,3.007,4.381.9.616-3.007a2.238,2.238,0,1,0-4.381-.9Z" transform="translate(-374.352 -209.391)" fill="#20362a"/>
        <path id="Pfad_4335" data-name="Pfad 4335" d="M376.3,276.64l.514-1.359,6.656,2.507c2,.755,3.671.147,4.429-1.87s-.1-3.572-2.093-4.326l-6.657-2.507.514-1.359,6.669,2.511c2.721,1.025,3.9,3.175,2.775,6.139s-3.43,3.8-6.118,2.787Z" transform="translate(-372.496 -218.338)" fill="#20362a"/>
        <path id="Pfad_4336" data-name="Pfad 4336" d="M384.971,265.241l6.254,8.448-.313.511-10.376-1.663,8.316,5.048-.755,1.242-9.991-6.067,1.079-1.783,9.5,1.521-5.715-7.739,1.079-1.783,9.991,6.067-.752,1.248Z" transform="translate(-368.862 -227.868)" fill="#20362a"/>
        <path id="Pfad_4337" data-name="Pfad 4337" d="M382.016,264.283l5.319-5.511.932.9-4.308,4.462,2.712,2.619,4.221-4.377.935.9-4.224,4.375,3.836,3.7-1.016,1.052Z" transform="translate(-361.018 -236.305)" fill="#20362a"/>
        <path id="Pfad_4338" data-name="Pfad 4338" d="M384.685,262.2l1.164-.878,4.3,5.667c1.29,1.7,3.028,2.081,4.747.776s1.819-3.076.526-4.783l-4.3-5.667,1.158-.881,4.311,5.682c1.762,2.321,1.615,4.762-.917,6.684s-4.931,1.389-6.666-.905Zm.523-2.877a.819.819,0,0,1,.153-1.134.815.815,0,0,1,.986,1.3A.823.823,0,0,1,385.208,259.319Zm2.877-2.186a.814.814,0,1,1,1.151.156A.818.818,0,0,1,388.085,257.133Z" transform="translate(-355.662 -242.204)" fill="#20362a"/>
        <path id="Pfad_4339" data-name="Pfad 4339" d="M395.22,261.462l-2.044,1.122,2.234,4.068-1.272.7-5.628-10.246,4.122-2.264a3.405,3.405,0,0,1,4.9,1.326,3.229,3.229,0,0,1-1.022,4.441l5.057,2.661-1.5.827Zm-2.12-5.4-2.691,1.476,2.15,3.921,2.691-1.476a2.238,2.238,0,1,0-2.15-3.921Z" transform="translate(-347.989 -245.257)" fill="#20362a"/>
        <path id="Pfad_4340" data-name="Pfad 4340" d="M393.644,253.915l5-1.455a2.949,2.949,0,0,1,3.975,1.948,2.649,2.649,0,0,1-1.218,3.142,2.924,2.924,0,0,1,2.992,2.123,3.05,3.05,0,0,1-2.366,3.975l-5.114,1.485Zm6.175,3.476a1.812,1.812,0,0,0,1.407-2.363,1.834,1.834,0,0,0-2.459-1.251l-3.364.977,1.052,3.617Zm1.557,5.093a1.929,1.929,0,0,0,1.521-2.541,1.986,1.986,0,0,0-2.649-1.326l-3.428,1,1.121,3.869Z" transform="translate(-337.686 -249.322)" fill="#20362a"/>
        <path id="Pfad_4341" data-name="Pfad 4341" d="M397.673,251.968l1.428-.253,2.026,11.494-1.431.256Z" transform="translate(-329.601 -250.465)" fill="#20362a"/>
        <path id="Pfad_4342" data-name="Pfad 4342" d="M405.012,251.307a6.054,6.054,0,1,1-5.5,6.326A5.72,5.72,0,0,1,405.012,251.307Zm.069,1.3c-2.628.129-4.2,2.219-4.059,4.949.129,2.715,1.888,4.666,4.516,4.54,2.61-.126,4.194-2.237,4.062-4.949C409.465,254.41,407.691,252.483,405.081,252.606Z" transform="translate(-325.921 -251.299)" fill="#20362a"/>
        <path id="Pfad_4343" data-name="Pfad 4343" d="M405.512,251.394l1.452.159-1.131,10.322,5.394.592-.138,1.287L404.246,263Z" transform="translate(-316.412 -251.11)" fill="#20362a"/>
        <path id="Pfad_4344" data-name="Pfad 4344" d="M414.665,252.334a6.052,6.052,0,1,1-7.159,4.363A5.714,5.714,0,0,1,414.665,252.334Zm-.331,1.254c-2.544-.673-4.672.851-5.373,3.494s.4,5.021,2.943,5.694c2.525.667,4.672-.869,5.367-3.5S416.859,254.256,414.334,253.588Z" transform="translate(-310.355 -249.657)" fill="#20362a"/>
        <path id="Pfad_4345" data-name="Pfad 4345" d="M420.384,254.395a5.581,5.581,0,0,1,3.181,3.909l-1.353.159a4.31,4.31,0,0,0-2.378-2.9,4.765,4.765,0,0,0-4.038,8.617,4.591,4.591,0,0,0,3.37.192l1.013-2.162-3.632-1.7.553-1.176,4.949,2.327-1.789,3.821a6.1,6.1,0,0,1-5.015-.129,6.053,6.053,0,0,1,5.138-10.962Z" transform="translate(-301.369 -246.317)" fill="#20362a"/>
        <path id="Pfad_4346" data-name="Pfad 4346" d="M421.244,255.413l1.233.77L416.3,266.1l-1.236-.77Z" transform="translate(-294.713 -243.045)" fill="#20362a"/>
        <path id="Pfad_4347" data-name="Pfad 4347" d="M417.812,262.845a4.967,4.967,0,0,0,1.876,3.575c1.636,1.278,2.853.8,3.4.1.863-1.1-.015-2.276-.971-3.557-1.173-1.539-2.489-3.235-1.079-5.039,1.182-1.518,3.34-1.5,5.15-.084a5.5,5.5,0,0,1,2.267,3.83l-1.35.307a4.452,4.452,0,0,0-1.8-3.184c-1.1-.86-2.357-.881-3.031-.009-.722.92.126,2.023,1.046,3.259,1.194,1.572,2.534,3.379,1.028,5.307-1.043,1.338-3.022,1.99-5.5.054a5.8,5.8,0,0,1-2.39-4.224Z" transform="translate(-291.906 -240.291)" fill="#20362a"/>
        <path id="Pfad_4348" data-name="Pfad 4348" d="M421.574,261.313a5.832,5.832,0,0,1,8.481.2,5.276,5.276,0,0,1,1.386,4.85l-1.341-.421a3.96,3.96,0,0,0-.992-3.539,4.753,4.753,0,0,0-6.915,6.494,3.909,3.909,0,0,0,3.47,1.212l.355,1.374a5.3,5.3,0,0,1-4.768-1.7A5.826,5.826,0,0,1,421.574,261.313Z" transform="translate(-285.647 -234.679)" fill="#20362a"/>
        <path id="Pfad_4349" data-name="Pfad 4349" d="M430.619,272.778l-3.764-5.7-4.471,2.952-.8-1.215,9.756-6.434.8,1.215-4.2,2.766,3.764,5.7,4.2-2.769.8,1.212-9.75,6.434-.8-1.209Z" transform="translate(-281.628 -229.063)" fill="#20362a"/>
        <path id="Pfad_4350" data-name="Pfad 4350" d="M434.456,266.509l3.145,6.975-1.185.532-2.541-5.652-3.436,1.548,2.5,5.541-1.182.532-2.5-5.541-3.671,1.657,2.547,5.652-1.179.529-3.142-6.975Z" transform="translate(-277.156 -220.78)" fill="#20362a"/>
        <path id="Pfad_4351" data-name="Pfad 4351" d="M426.647,273.708l10.424,4.305-1.491-6.392,1.263-.295,1.912,8.2-1.179.277-10.421-4.311,1.518,6.515-1.263.292-1.936-8.316Z" transform="translate(-273.817 -211.113)" fill="#20362a"/>
        <path id="Pfad_4352" data-name="Pfad 4352" d="M429.4,283.753l-.421-5.9-2.658-.845-.111-1.609,11.978,3.851.126,1.8L427,286.573l-.114-1.611Zm.9-5.571.355,5.042,6.3-2.974Z" transform="translate(-272.332 -202.944)" fill="#20362a"/>
        <path id="Pfad_4353" data-name="Pfad 4353" d="M431.6,288.428l.677-6.8-5.331-.529.144-1.443,11.62,1.155-.147,1.452-5-.5-.676,6.795,5,.5-.144,1.449-11.62-1.164.141-1.443Z" transform="translate(-272.506 -194.396)" fill="#20362a"/>
        <path id="Pfad_4354" data-name="Pfad 4354" d="M436.378,287.755l-9.077-2.541.391-1.4,11.257,3.157-.4,1.428-10.709,3.99,8.89,2.5-.391,1.4-11.254-3.154.376-1.353Z" transform="translate(-274.597 -186.065)" fill="#20362a"/>
        <path id="Pfad_4355" data-name="Pfad 4355" d="M432.432,301.071l-6.939-7.886.265-.535,10.472.776-8.71-4.32.647-1.3,10.463,5.2-.923,1.864-9.588-.713,6.356,7.225-.932,1.867-10.466-5.2.646-1.3Z" transform="translate(-278.628 -178.058)" fill="#20362a"/>
        <path id="Pfad_4356" data-name="Pfad 4356" d="M434.975,298.88l-4.516,6.17-1.046-.764,3.659-5-3.037-2.219-3.587,4.9L425.4,301.2l3.584-4.9-3.247-2.378-3.659,5-1.046-.764,4.516-6.172Z" transform="translate(-282.722 -169.659)" fill="#20362a"/>
        <path id="Pfad_4357" data-name="Pfad 4357" d="M431.958,302.912l-2.829,2.817a5.842,5.842,0,1,1-8.247-8.271l2.826-2.82ZM421.8,298.378a4.545,4.545,0,0,0,6.419,6.434l1.8-1.792-6.422-6.434Z" transform="translate(-286.855 -164.337)" fill="#20362a"/>
        <path id="Pfad_4358" data-name="Pfad 4358" d="M425.5,306.653l-1.142.9-7.219-9.2,1.148-.9Z" transform="translate(-290.535 -158.683)" fill="#20362a"/>
        <path id="Pfad_4359" data-name="Pfad 4359" d="M422.053,299.244l-.634,11.278,5.553-3.515.694,1.091-7.126,4.516-.649-1.022.637-11.281-5.655,3.587-.695-1.1,7.225-4.579Z" transform="translate(-296.481 -157.146)" fill="#20362a"/>
        <path id="Pfad_4360" data-name="Pfad 4360" d="M419.639,310.493l-1.3.656L413.091,300.7l1.3-.652Z" transform="translate(-298.664 -153.488)" fill="#20362a"/>
        <path id="Pfad_4361" data-name="Pfad 4361" d="M420.1,310.1l-3.187-8.872,1.371-.493,3.948,11-1.4.505-9.447-6.422,3.115,8.692-1.365.49-3.951-11,1.326-.472Z" transform="translate(-306.52 -152.113)" fill="#20362a"/>
      </g>
      <g id="Gruppe_642" data-name="Gruppe 642" transform="translate(18.097 124.068)">
        <path id="Pfad_4362" data-name="Pfad 4362" d="M446.787,329.212a78.411,78.411,0,0,1-64.957-34.645c-.262-.388-.52-.788-.779-1.188l1.263-.815c.253.394.505.782.764,1.164a76.779,76.779,0,0,0,73.4,33.352l.192,1.491A76.418,76.418,0,0,1,446.787,329.212Z" transform="translate(-381.051 -292.565)" fill="#20362a"/>
      </g>
    </g>
  </g>
</svg>
