<svg xmlns="http://www.w3.org/2000/svg" xmlns:xlink="http://www.w3.org/1999/xlink" width="190.75" height="60" viewBox="0 0 190.75 60">
  <defs>
    <style>
      .cls-1 {
        fill: none;
      }

      .cls-2 {
        clip-path: url(#clip-path);
      }

      .cls-3 {
        fill: #00224b;
      }
    </style>
    <clipPath id="clip-path">
      <path id="Pfad_3928" data-name="Pfad 3928" class="cls-1" d="M0-30.983H190.75v-60H0Z" transform="translate(0 90.983)"/>
    </clipPath>
  </defs>
  <g id="Gruppe_787" data-name="Gruppe 787" transform="translate(0 90.983)">
    <g id="Gruppe_788" data-name="Gruppe 788" class="cls-2" transform="translate(0 -90.983)">
      <g id="Gruppe_787-2" data-name="Gruppe 787" transform="translate(0 14.418)">
        <path id="Pfad_3927" data-name="Pfad 3927" class="cls-3" d="M-1.428-5.585a20.315,20.315,0,0,1,7.53-7.97A20.2,20.2,0,0,1,16.637-16.4a19.257,19.257,0,0,1,9.095,2.044,18.421,18.421,0,0,1,6.206,5.088v-6.409h9.211V28.461H31.938V21.894A18.124,18.124,0,0,1,25.614,27.1a19.528,19.528,0,0,1-9.134,2.083A19.423,19.423,0,0,1,6.063,26.258a20.753,20.753,0,0,1-7.491-8.171A25.165,25.165,0,0,1-4.192,6.192,24.479,24.479,0,0,1-1.428-5.585M30.061-1.579a13.271,13.271,0,0,0-4.929-5.127A12.913,12.913,0,0,0,18.56-8.47,13.119,13.119,0,0,0,12-6.745,12.932,12.932,0,0,0,7.067-1.7,15.726,15.726,0,0,0,5.183,6.192,16.4,16.4,0,0,0,7.067,14.2a13.215,13.215,0,0,0,4.968,5.248,12.714,12.714,0,0,0,6.525,1.8,12.886,12.886,0,0,0,6.572-1.763,13.163,13.163,0,0,0,4.929-5.166,16.239,16.239,0,0,0,1.877-7.97,16.014,16.014,0,0,0-1.877-7.931" transform="translate(4.192 16.4)"/>
      </g>
    </g>
    <path id="Pfad_3929" data-name="Pfad 3929" class="cls-3" d="M83.939-31.7h9.134V-90.983H83.939Z" transform="translate(-28.585)"/>
    <g id="Gruppe_791" data-name="Gruppe 791" class="cls-2" transform="translate(0 -90.983)">
      <g id="Gruppe_789" data-name="Gruppe 789" transform="translate(71.458 14.418)">
        <path id="Pfad_3930" data-name="Pfad 3930" class="cls-3" d="M-22.3-13.528H-56.019a12.232,12.232,0,0,0,3.924,8.491,12.391,12.391,0,0,0,8.651,3.2q7.373,0,10.418-6.167h9.851a19.9,19.9,0,0,1-7.249,9.971A21.268,21.268,0,0,1-43.444,5.857,22.571,22.571,0,0,1-54.781,3.015,20.238,20.238,0,0,1-62.63-5a24.417,24.417,0,0,1-2.842-11.975,24.989,24.989,0,0,1,2.764-11.977,19.4,19.4,0,0,1,7.771-7.969,23.1,23.1,0,0,1,11.493-2.807A22.489,22.489,0,0,1-32.309-37,19.192,19.192,0,0,1-24.7-29.35a23.015,23.015,0,0,1,2.726,11.337,28.39,28.39,0,0,1-.32,4.485m-9.211-7.37a10.4,10.4,0,0,0-3.605-8.09,12.889,12.889,0,0,0-8.729-3.044,11.723,11.723,0,0,0-8.09,3,12.58,12.58,0,0,0-4.01,8.133Z" transform="translate(65.472 39.725)"/>
      </g>
      <g id="Gruppe_790" data-name="Gruppe 790" transform="translate(119.523 14.418)">
        <path id="Pfad_3931" data-name="Pfad 3931" class="cls-3" d="M-4.693-22.567a16.4,16.4,0,0,1-6.526-5.127,12.759,12.759,0,0,1-2.562-7.249h9.453a6.416,6.416,0,0,0,2.679,4.684A9.723,9.723,0,0,0,4.48-28.375a10.3,10.3,0,0,0,5.971-1.483,4.466,4.466,0,0,0,2.119-3.8,3.9,3.9,0,0,0-2.36-3.687,44.712,44.712,0,0,0-7.491-2.643,71.047,71.047,0,0,1-8.09-2.644,14.108,14.108,0,0,1-5.4-3.924,10.269,10.269,0,0,1-2.288-6.969,10.871,10.871,0,0,1,2.086-6.448,13.874,13.874,0,0,1,5.966-4.606,22.238,22.238,0,0,1,8.931-1.685q7.53,0,12.139,3.807a13.67,13.67,0,0,1,4.929,10.372H11.853a6.525,6.525,0,0,0-2.406-4.726A8.988,8.988,0,0,0,3.6-58.575a9.5,9.5,0,0,0-5.528,1.362,4.222,4.222,0,0,0-1.924,3.6,3.91,3.91,0,0,0,1.285,2.966A9.121,9.121,0,0,0,.555-48.764C1.787-48.307,3.6-47.734,6-47.04a59.328,59.328,0,0,1,7.889,2.6,14.707,14.707,0,0,1,5.326,3.886,10.294,10.294,0,0,1,2.328,6.809,11.418,11.418,0,0,1-2.087,6.731,13.813,13.813,0,0,1-5.887,4.645,21.944,21.944,0,0,1-8.931,1.682,22.3,22.3,0,0,1-9.335-1.881" transform="translate(13.781 66.268)"/>
      </g>
    </g>
    <path id="Pfad_3933" data-name="Pfad 3933" class="cls-3" d="M255.851-23.878h-9.135V-68.024h9.135Z" transform="translate(-84.021 -7.826)"/>
    <g id="Gruppe_793" data-name="Gruppe 793" class="cls-2" transform="translate(0 -90.983)">
      <g id="Gruppe_792" data-name="Gruppe 792" transform="translate(179.139 47.581)">
        <path id="Pfad_3934" data-name="Pfad 3934" class="cls-3" d="M-.868-5.171A5.65,5.65,0,0,1-2.55-9.334,5.658,5.658,0,0,1-.868-13.5,5.661,5.661,0,0,1,3.3-15.185,5.563,5.563,0,0,1,7.378-13.5,5.656,5.656,0,0,1,9.061-9.334,5.648,5.648,0,0,1,7.378-5.171,5.55,5.55,0,0,1,3.3-3.486,5.648,5.648,0,0,1-.868-5.171" transform="translate(2.55 15.185)"/>
      </g>
    </g>
  </g>
</svg>
