<?xml version="1.0" encoding="UTF-8"?>
<svg id="Ebene_1" xmlns="http://www.w3.org/2000/svg" version="1.1" viewBox="0 0 624.78 119.61">
  <!-- Generator: Adobe Illustrator 30.5.1, SVG Export Plug-In . SVG Version: 2.1.4 Build 3)  -->
  <defs>
    <style>
      .st0 {
        fill: #998a6c;
      }

      .st1 {
        fill: #0164a6;
      }

      .st2 {
        fill: #ccc2b3;
      }

      .st3 {
        fill: #bdb09c;
      }

      .st4 {
        fill: #1d3c6d;
      }
    </style>
  </defs>
  <g>
    <path class="st4" d="M146.22,41.48c7.79,1.19,13.85,4.64,13.85,12.53,0,5.27-2.84,9.36-7.48,11.88-4.01,2.2-9.21,3.14-15.42,3.14h-17.4v-2.19c6.77-.49,7.24-.95,7.24-7.49v-31.8c0-6.53-.31-7-6.6-7.47v-2.21h20.23c5.9,0,9.37.95,11.81,2.69,2.75,1.88,4.41,5.35,4.41,8.96,0,7.48-6.3,10.55-10.63,11.8v.16ZM137.4,40.54c8.58,0,12.2-3.47,12.2-10.08,0-5.36-2.99-10.08-10.47-10.08-1.89,0-3.7.32-4.41.79-.78.47-1.02,1.34-1.02,3.93v15.43h3.7ZM133.7,59.19c0,5.67,1.42,7.16,6.53,7.16,6.37-.07,12.12-3.3,12.12-11.56s-5.51-11.58-15.12-11.58h-3.54v15.98Z"/>
    <path class="st4" d="M207.94,56.6c-.47,2.6-2.05,10-2.75,12.43h-37.94v-2.19c7.16-.56,7.79-1.18,7.79-7.64v-31.33c0-7-.62-7.31-6.76-7.79v-2.21h35.1c0,1.97.39,7.33.63,11.34l-2.28.31c-.71-3.3-1.49-5.03-2.51-6.68-1.11-1.73-3.23-2.28-8.89-2.28h-5.98c-2.44,0-2.6.23-2.6,2.51v17.95h7.4c7.16,0,7.56-.63,8.5-5.91h2.29v15.03h-2.29c-1.02-5.58-1.57-6.07-8.42-6.07h-7.48v14.88c0,3.7.48,5.43,1.89,6.37,1.49,1.02,4.25,1.02,8.18,1.02,5.98,0,8.19-.62,9.92-2.67,1.34-1.57,2.84-4.33,3.94-7.4l2.28.32Z"/>
    <path class="st4" d="M268.32,20.08c-4.41.23-6.29,1.26-6.61,4.63-.32,2.45-.48,5.99-.48,13.31v31.72h-2.44l-33.53-41.24h-.16v19.75c0,7.26.23,11.02.46,13.31.4,4.01,2.21,4.96,7.56,5.28v2.19h-18.66v-2.19c4.49-.24,6.54-1.27,6.93-5.13.23-2.44.47-6.3.47-13.46v-17.31c0-5.74-.15-6.13-1.57-7.95-1.66-1.97-3.31-2.6-7.01-2.91v-2.21h11.57l32.9,39.52h.24v-19.37c0-7.32-.24-10.85-.55-13.07-.39-3.61-2.2-4.64-7.72-4.87v-2.21h18.58v2.21Z"/>
    <path class="st4" d="M316.49,30.07c-.79-3.78-1.58-5.75-2.44-7.01-1.34-1.89-2.59-2.51-8.58-2.51h-5.51v38.8c0,6.22.63,7,8.03,7.49v2.19h-22.51v-2.19c7.16-.49,7.79-1.27,7.79-7.49V20.55h-4.88c-6.54,0-8.1.71-9.13,2.44-.95,1.33-1.57,3.62-2.52,7.08h-2.28c.4-4.72.79-9.83.95-14.17h1.57c1.1,1.81,2.13,1.97,4.32,1.97h31.1c2.12,0,2.75-.47,3.94-1.97h1.65c.08,3.62.39,9.37.87,13.93l-2.37.24Z"/>
    <path class="st4" d="M325.87,69.03v-2.19c6.45-.49,7.08-.95,7.08-7.64v-31.49c0-6.68-.63-7.15-7.08-7.62v-2.21h20.85v2.21c-6.45.47-7.08.94-7.08,7.62v31.49c0,6.78.63,7.16,7.08,7.64v2.19h-20.85Z"/>
    <path class="st4" d="M405.84,20.08c-5.35.63-6.37,1.34-9.37,8.33-2.13,5.2-10.39,25.19-16.37,41.49h-2.44c-5.27-14.4-11.74-31.49-16.3-42.9-2.28-5.82-3.54-6.45-8.26-6.92v-2.21h19.29v2.21c-5.59.54-5.83,1.18-4.57,4.63,1.97,5.6,7.71,20.86,13.06,34.41h.15c3.94-9.92,9.93-25.27,12.44-33.14,1.5-4.56,1.03-5.11-5.35-5.9v-2.21h17.71v2.21Z"/>
    <path class="st4" d="M452.13,56.6c-.46,2.6-2.04,10-2.75,12.43h-37.94v-2.19c7.17-.56,7.79-1.18,7.79-7.64v-31.33c0-7-.62-7.31-6.77-7.79v-2.21h35.11c0,1.97.4,7.33.63,11.34l-2.29.31c-.71-3.3-1.49-5.03-2.52-6.68-1.1-1.73-3.22-2.28-8.89-2.28h-5.98c-2.44,0-2.6.23-2.6,2.51v17.95h7.4c7.17,0,7.57-.63,8.51-5.91h2.29v15.03h-2.29c-1.03-5.58-1.58-6.07-8.43-6.07h-7.48v14.88c0,3.7.47,5.43,1.89,6.37,1.5,1.02,4.25,1.02,8.2,1.02,5.98,0,8.18-.62,9.91-2.67,1.34-1.57,2.83-4.33,3.94-7.4l2.28.32Z"/>
    <path class="st4" d="M510.4,47.46c-4.73.63-5.04,1.03-5.04,5.67v6.77c0,2.75.08,5.28.55,7.48-4.88,1.1-11.33,2.83-17.63,2.83-17.31,0-28.89-10.78-28.89-26.45,0-18.19,14.65-27.07,30.07-27.07,6.61,0,12.59,1.73,15.19,2.28.23,2.76.63,7.1,1.18,12.28l-2.2.47c-1.9-9.68-7.79-12.28-15.35-12.28-12.04,0-20.86,8.9-20.86,23.38,0,11.42,6.68,24.63,21.89,24.63,2.68,0,5.11-.47,6.85-1.33,1.57-.87,2.51-1.9,2.51-5.2v-6.68c0-5.67-.48-6.23-8.27-6.78v-2.2h20v2.2Z"/>
    <path class="st4" d="M570.85,20.08c-4.41.23-6.29,1.26-6.61,4.63-.32,2.45-.47,5.99-.47,13.31v31.72h-2.44l-33.53-41.24h-.16v19.75c0,7.26.23,11.02.47,13.31.4,4.01,2.2,4.96,7.56,5.28v2.19h-18.65v-2.19c4.48-.24,6.53-1.27,6.92-5.13.24-2.44.47-6.3.47-13.46v-17.31c0-5.74-.15-6.13-1.57-7.95-1.65-1.97-3.3-2.6-7-2.91v-2.21h11.56l32.91,39.52h.23v-19.37c0-7.32-.23-10.85-.55-13.07-.4-3.61-2.21-4.64-7.71-4.87v-2.21h18.58v2.21Z"/>
    <path class="st4" d="M605.49,69.03v-2.19c4.96-.63,5.67-1.27,4.64-4.34-1.03-3.07-2.6-7.32-4.33-12.12h-16.77c-1.25,3.54-2.44,6.84-3.46,10.15-1.65,4.96-1.02,5.75,4.96,6.31v2.19h-17.16v-2.19c5.04-.71,6.14-1.18,8.82-8.2l16.29-41.24,2.44-.71c4.88,13.46,10.16,28.49,15.2,42.19,2.44,6.78,3.54,7.48,8.66,7.96v2.19h-19.29ZM597.77,26.93h-.15c-2.53,6.69-4.96,13.62-7.39,20.06h14.48l-6.93-20.06Z"/>
  </g>
  <g>
    <path class="st0" d="M135.31,89.99c-1.3.09-1.8.37-1.89,1.28-.07.59-.13,1.52-.13,3.51v1.78c0,2.56-.39,4.41-1.63,5.73-1.02,1.04-2.47,1.5-3.91,1.5-1.28,0-2.52-.3-3.47-1.04-1.3-1-1.91-2.6-1.91-5.17v-5.4c0-1.95-.2-2.04-1.89-2.19v-.61h5.6v.61c-1.69.11-1.87.24-1.87,2.19v4.93c0,3.49,1.39,5.51,4.08,5.51,3.12,0,4.1-2.62,4.1-6.21v-1.63c0-2-.06-2.91-.15-3.58-.11-.85-.56-1.11-2.1-1.21v-.61h5.16v.61Z"/>
    <path class="st0" d="M151.78,89.99c-1.21.07-1.74.35-1.82,1.28-.09.67-.13,1.65-.13,3.67v8.74h-.67l-9.24-11.37h-.04v5.45c0,2,.07,3.04.13,3.67.11,1.11.61,1.37,2.08,1.45v.61h-5.14v-.61c1.24-.07,1.8-.35,1.91-1.41.07-.67.13-1.74.13-3.71v-4.77c0-1.58-.04-1.69-.43-2.19-.46-.54-.91-.72-1.93-.8v-.61h3.19l9.07,10.89h.07v-5.34c0-2.02-.07-2.99-.15-3.6-.11-1-.61-1.28-2.13-1.35v-.61h5.12v.61Z"/>
    <path class="st0" d="M164.93,92.74c-.22-1.04-.43-1.58-.67-1.93-.37-.52-.72-.69-2.37-.69h-1.52v10.7c0,1.71.17,1.93,2.21,2.06v.61h-6.21v-.61c1.97-.13,2.15-.35,2.15-2.06v-10.7h-1.34c-1.8,0-2.24.2-2.52.67-.26.37-.43,1-.69,1.95h-.63c.11-1.3.22-2.71.26-3.91h.43c.3.5.59.54,1.19.54h8.57c.58,0,.76-.13,1.08-.54h.46c.02,1,.11,2.58.24,3.84l-.65.07Z"/>
    <path class="st0" d="M178.4,100.06c-.13.72-.56,2.76-.76,3.43h-10.46v-.61c1.97-.15,2.15-.33,2.15-2.1v-8.64c0-1.93-.17-2.02-1.87-2.15v-.61h9.68c0,.54.11,2.02.17,3.12l-.63.09c-.2-.91-.41-1.39-.69-1.84-.3-.48-.89-.63-2.45-.63h-1.65c-.67,0-.72.07-.72.69v4.95h2.04c1.97,0,2.08-.17,2.34-1.63h.63v4.14h-.63c-.28-1.54-.43-1.67-2.32-1.67h-2.06v4.1c0,1.02.13,1.5.52,1.76.41.28,1.17.28,2.26.28,1.65,0,2.26-.17,2.73-.74.37-.43.78-1.19,1.08-2.04l.63.09Z"/>
    <path class="st0" d="M192.92,103.66c-.26,0-.52,0-.76-.02-1.65-.09-2.54-.56-3.52-1.97-.76-1.06-1.54-2.41-2.19-3.47-.37-.61-.74-.87-1.84-.87h-.69v3.45c0,1.84.2,1.97,1.91,2.1v.61h-5.69v-.61c1.78-.13,1.95-.26,1.95-2.1v-8.72c0-1.84-.17-1.91-1.87-2.06v-.61h5.38c1.58,0,2.65.2,3.45.74.89.56,1.45,1.54,1.45,2.84,0,1.87-1.17,3.02-2.76,3.73.37.69,1.28,2.15,1.93,3.12.78,1.13,1.21,1.69,1.76,2.26.56.65,1.08.89,1.56,1.02l-.09.56ZM184.96,96.63c1.08,0,1.8-.17,2.34-.63.85-.65,1.19-1.52,1.19-2.69,0-2.34-1.54-3.21-3.17-3.21-.63,0-1,.09-1.17.22-.17.11-.24.35-.24.96v5.36h1.04Z"/>
    <path class="st0" d="M208.83,89.99c-1.21.07-1.74.35-1.82,1.28-.09.67-.13,1.65-.13,3.67v8.74h-.67l-9.24-11.37h-.04v5.45c0,2,.07,3.04.13,3.67.11,1.11.61,1.37,2.08,1.45v.61h-5.14v-.61c1.24-.07,1.8-.35,1.91-1.41.07-.67.13-1.74.13-3.71v-4.77c0-1.58-.04-1.69-.43-2.19-.46-.54-.91-.72-1.93-.8v-.61h3.19l9.07,10.89h.07v-5.34c0-2.02-.07-2.99-.15-3.6-.11-1-.61-1.28-2.13-1.35v-.61h5.12v.61Z"/>
    <path class="st0" d="M221.63,100.06c-.13.72-.56,2.76-.76,3.43h-10.46v-.61c1.97-.15,2.15-.33,2.15-2.1v-8.64c0-1.93-.17-2.02-1.87-2.15v-.61h9.68c0,.54.11,2.02.17,3.12l-.63.09c-.2-.91-.41-1.39-.69-1.84-.3-.48-.89-.63-2.45-.63h-1.65c-.67,0-.72.07-.72.69v4.95h2.04c1.97,0,2.08-.17,2.34-1.63h.63v4.14h-.63c-.28-1.54-.43-1.67-2.32-1.67h-2.06v4.1c0,1.02.13,1.5.52,1.76.41.28,1.17.28,2.26.28,1.65,0,2.26-.17,2.73-.74.37-.43.78-1.19,1.08-2.04l.63.09Z"/>
    <path class="st0" d="M238.36,89.99c-1.78.15-1.95.26-1.95,2.06v8.77c0,1.82.17,1.93,1.93,2.06v.61h-5.81v-.61c1.87-.13,2.04-.24,2.04-2.06v-4.32h-7.4v4.32c0,1.8.17,1.93,1.95,2.06v.61h-5.71v-.61c1.74-.13,1.91-.24,1.91-2.06v-8.77c0-1.82-.17-1.93-1.95-2.06v-.61h5.62v.61c-1.65.13-1.82.26-1.82,2.06v3.51h7.4v-3.51c0-1.8-.17-1.91-1.87-2.06v-.61h5.66v.61Z"/>
    <path class="st0" d="M252.57,103.48v-.61c1.78-.15,1.84-.28,1.84-2.58l-.09-8.85h-.09l-5.29,11.89h-.43l-4.86-11.59h-.04l-.33,6.18c-.09,1.8-.09,2.73-.06,3.6.04,1.04.54,1.19,2,1.35v.61h-5.06v-.61c1.28-.13,1.69-.39,1.84-1.3.13-.76.26-1.69.41-3.97l.3-4.51c.19-2.82.09-2.91-1.89-3.1v-.61h3.56l4.95,10.87,5.03-10.87h3.69v.61c-1.93.17-2.06.22-2,2.45l.2,7.85c.07,2.3.13,2.43,2.02,2.58v.61h-5.71Z"/>
    <path class="st0" d="M271.21,100.06c-.13.72-.56,2.76-.76,3.43h-10.46v-.61c1.97-.15,2.15-.33,2.15-2.1v-8.64c0-1.93-.17-2.02-1.87-2.15v-.61h9.68c0,.54.11,2.02.17,3.12l-.63.09c-.2-.91-.41-1.39-.69-1.84-.3-.48-.89-.63-2.45-.63h-1.65c-.67,0-.72.07-.72.69v4.95h2.04c1.97,0,2.08-.17,2.34-1.63h.63v4.14h-.63c-.28-1.54-.43-1.67-2.32-1.67h-2.06v4.1c0,1.02.13,1.5.52,1.76.41.28,1.17.28,2.26.28,1.65,0,2.26-.17,2.73-.74.37-.43.78-1.19,1.08-2.04l.63.09Z"/>
    <path class="st0" d="M285.73,103.66c-.26,0-.52,0-.76-.02-1.65-.09-2.54-.56-3.51-1.97-.76-1.06-1.54-2.41-2.19-3.47-.37-.61-.74-.87-1.84-.87h-.69v3.45c0,1.84.2,1.97,1.91,2.1v.61h-5.69v-.61c1.78-.13,1.95-.26,1.95-2.1v-8.72c0-1.84-.17-1.91-1.87-2.06v-.61h5.38c1.58,0,2.65.2,3.45.74.89.56,1.45,1.54,1.45,2.84,0,1.87-1.17,3.02-2.76,3.73.37.69,1.28,2.15,1.93,3.12.78,1.13,1.21,1.69,1.76,2.26.56.65,1.08.89,1.56,1.02l-.09.56ZM277.77,96.63c1.08,0,1.8-.17,2.34-.63.85-.65,1.19-1.52,1.19-2.69,0-2.34-1.54-3.21-3.17-3.21-.63,0-1,.09-1.17.22-.17.11-.24.35-.24.96v5.36h1.04Z"/>
    <path class="st0" d="M294.11,95.89c2.15.33,3.82,1.28,3.82,3.45,0,1.45-.78,2.58-2.06,3.28-1.11.61-2.54.87-4.25.87h-4.79v-.61c1.87-.13,2-.26,2-2.06v-8.77c0-1.8-.09-1.93-1.82-2.06v-.61h5.58c1.63,0,2.58.26,3.25.74.76.52,1.21,1.48,1.21,2.47,0,2.06-1.74,2.91-2.93,3.25v.04ZM291.68,95.63c2.37,0,3.36-.96,3.36-2.78,0-1.48-.83-2.78-2.89-2.78-.52,0-1.02.09-1.22.22-.22.13-.28.37-.28,1.08v4.25h1.02ZM290.66,100.77c0,1.56.39,1.97,1.8,1.97,1.76-.02,3.34-.91,3.34-3.19s-1.52-3.19-4.17-3.19h-.98v4.41Z"/>
    <path class="st0" d="M310.99,100.06c-.13.72-.56,2.76-.76,3.43h-10.46v-.61c1.97-.15,2.15-.33,2.15-2.1v-8.64c0-1.93-.17-2.02-1.87-2.15v-.61h9.68c0,.54.11,2.02.17,3.12l-.63.09c-.2-.91-.41-1.39-.69-1.84-.3-.48-.89-.63-2.45-.63h-1.65c-.67,0-.72.07-.72.69v4.95h2.04c1.97,0,2.08-.17,2.34-1.63h.63v4.14h-.63c-.28-1.54-.43-1.67-2.32-1.67h-2.06v4.1c0,1.02.13,1.5.52,1.76.41.28,1.17.28,2.26.28,1.65,0,2.26-.17,2.73-.74.37-.43.78-1.19,1.08-2.04l.63.09Z"/>
    <path class="st0" d="M325.51,103.66c-.26,0-.52,0-.76-.02-1.65-.09-2.54-.56-3.51-1.97-.76-1.06-1.54-2.41-2.19-3.47-.37-.61-.74-.87-1.84-.87h-.69v3.45c0,1.84.2,1.97,1.91,2.1v.61h-5.69v-.61c1.78-.13,1.95-.26,1.95-2.1v-8.72c0-1.84-.17-1.91-1.87-2.06v-.61h5.38c1.58,0,2.65.2,3.45.74.89.56,1.45,1.54,1.45,2.84,0,1.87-1.17,3.02-2.76,3.73.37.69,1.28,2.15,1.93,3.12.78,1.13,1.21,1.69,1.76,2.26.56.65,1.08.89,1.56,1.02l-.09.56ZM317.54,96.63c1.08,0,1.8-.17,2.34-.63.85-.65,1.19-1.52,1.19-2.69,0-2.34-1.54-3.21-3.17-3.21-.63,0-1,.09-1.17.22-.17.11-.24.35-.24.96v5.36h1.04Z"/>
    <path class="st0" d="M335.18,103.48v-.61c1.37-.17,1.56-.35,1.28-1.19-.28-.85-.72-2.02-1.19-3.34h-4.62c-.35.98-.67,1.89-.96,2.8-.46,1.37-.28,1.58,1.37,1.74v.61h-4.73v-.61c1.39-.2,1.69-.33,2.43-2.26l4.49-11.37.67-.19c1.34,3.71,2.8,7.85,4.19,11.63.67,1.87.98,2.06,2.39,2.19v.61h-5.32ZM333.06,91.88h-.04c-.69,1.84-1.37,3.75-2.04,5.53h3.99l-1.91-5.53Z"/>
    <path class="st0" d="M352.09,92.74c-.22-1.04-.43-1.58-.67-1.93-.37-.52-.72-.69-2.37-.69h-1.52v10.7c0,1.71.17,1.93,2.21,2.06v.61h-6.21v-.61c1.97-.13,2.15-.35,2.15-2.06v-10.7h-1.34c-1.8,0-2.24.2-2.52.67-.26.37-.43,1-.69,1.95h-.63c.11-1.3.22-2.71.26-3.91h.43c.3.5.59.54,1.19.54h8.57c.58,0,.76-.13,1.08-.54h.46c.02,1,.11,2.58.24,3.84l-.65.07Z"/>
    <path class="st0" d="M369.25,89.99c-1.3.09-1.8.37-1.89,1.28-.07.59-.13,1.52-.13,3.51v1.78c0,2.56-.39,4.41-1.63,5.73-1.02,1.04-2.47,1.5-3.91,1.5-1.28,0-2.52-.3-3.47-1.04-1.3-1-1.91-2.6-1.91-5.17v-5.4c0-1.95-.2-2.04-1.89-2.19v-.61h5.6v.61c-1.69.11-1.87.24-1.87,2.19v4.93c0,3.49,1.39,5.51,4.08,5.51,3.12,0,4.1-2.62,4.1-6.21v-1.63c0-2-.06-2.91-.15-3.58-.11-.85-.56-1.11-2.1-1.21v-.61h5.16v.61Z"/>
    <path class="st0" d="M385.72,89.99c-1.21.07-1.74.35-1.82,1.28-.09.67-.13,1.65-.13,3.67v8.74h-.67l-9.24-11.37h-.04v5.45c0,2,.07,3.04.13,3.67.11,1.11.61,1.37,2.08,1.45v.61h-5.14v-.61c1.24-.07,1.8-.35,1.91-1.41.07-.67.13-1.74.13-3.71v-4.77c0-1.58-.04-1.69-.43-2.19-.46-.54-.91-.72-1.93-.8v-.61h3.19l9.07,10.89h.07v-5.34c0-2.02-.07-2.99-.15-3.6-.11-1-.61-1.28-2.13-1.35v-.61h5.12v.61Z"/>
    <path class="st0" d="M401.54,97.54c-1.3.17-1.39.28-1.39,1.56v1.87c0,.76.02,1.45.15,2.06-1.35.3-3.12.78-4.86.78-4.77,0-7.96-2.97-7.96-7.29,0-5.01,4.04-7.46,8.29-7.46,1.82,0,3.47.48,4.19.63.07.76.17,1.95.33,3.38l-.61.13c-.52-2.67-2.15-3.38-4.23-3.38-3.32,0-5.75,2.45-5.75,6.44,0,3.15,1.84,6.79,6.03,6.79.74,0,1.41-.13,1.89-.37.43-.24.69-.52.69-1.43v-1.84c0-1.56-.13-1.71-2.28-1.87v-.61h5.51v.61Z"/>
    <path class="st0" d="M423.39,94.83c-1.52.17-1.8.56-2.52,1.63-.61.85-1.13,1.74-1.89,2.89.91.89,2.89,3.08,3.54,4.34l-.15.2c-1.19-.11-2.39-.61-2.65-.89-.26-.3-1.17-1.32-1.89-2.06-1.56,2.08-2.99,2.86-4.56,2.86-2.73,0-4.27-2.04-4.27-3.93,0-2.02,1.41-2.89,3.25-4.21-.98-.91-1.56-1.84-1.56-3.02,0-1.95,1.65-3.43,3.56-3.43,1.76,0,3.21,1.26,3.21,2.99,0,.89-.46,1.52-.91,1.91-.41.35-.91.76-1.76,1.32.72.61,2.26,1.93,3.65,3.36.52-.8.89-1.54,1.3-2.5.43-1.02.22-1.28-1.32-1.48v-.61h4.97v.61ZM417.34,100.34c-1.15-1.28-2.54-2.6-4.51-4.21-1.43,1.02-1.97,2.04-1.97,3.1,0,2.08,1.58,3.08,3.02,3.08s2.76-.98,3.47-1.97ZM412.26,92.11c0,1.13.67,1.89,1.97,2.89,1.02-.76,1.61-1.61,1.61-2.78,0-1.24-.74-2.28-1.82-2.28-1,0-1.76.87-1.76,2.17Z"/>
    <path class="st0" d="M437.3,92.66c-.37-1.37-.95-2.86-2.84-2.86-1.67,0-2.41,1.19-2.41,2.37,0,1.58,1.04,2.34,2.76,3.21,1.71.89,3.75,1.89,3.75,4.34,0,2.28-1.93,4.1-4.82,4.1-.89,0-1.61-.17-2.13-.33-.54-.17-.87-.35-1.08-.46-.15-.46-.43-2.32-.59-3.36l.65-.15c.33,1.32,1.3,3.51,3.56,3.51,1.65,0,2.6-1.02,2.6-2.6s-1.19-2.37-2.82-3.23c-1.39-.76-3.58-1.82-3.58-4.28,0-2.08,1.67-3.86,4.47-3.86,1,0,1.91.24,2.73.5.09.76.2,1.63.37,2.99l-.63.11Z"/>
    <path class="st0" d="M451.76,92.74c-.22-1.04-.43-1.58-.67-1.93-.37-.52-.72-.69-2.37-.69h-1.52v10.7c0,1.71.17,1.93,2.21,2.06v.61h-6.21v-.61c1.97-.13,2.15-.35,2.15-2.06v-10.7h-1.34c-1.8,0-2.24.2-2.52.67-.26.37-.43,1-.69,1.95h-.63c.11-1.3.22-2.71.26-3.91h.43c.3.5.59.54,1.19.54h8.57c.58,0,.76-.13,1.08-.54h.46c.02,1,.11,2.58.24,3.84l-.65.07Z"/>
    <path class="st0" d="M465.23,100.06c-.13.72-.56,2.76-.76,3.43h-10.46v-.61c1.97-.15,2.15-.33,2.15-2.1v-8.64c0-1.93-.17-2.02-1.87-2.15v-.61h9.68c0,.54.11,2.02.17,3.12l-.63.09c-.2-.91-.41-1.39-.69-1.84-.3-.48-.89-.63-2.45-.63h-1.65c-.67,0-.72.07-.72.69v4.95h2.04c1.97,0,2.08-.17,2.34-1.63h.63v4.14h-.63c-.28-1.54-.43-1.67-2.32-1.67h-2.06v4.1c0,1.02.13,1.5.52,1.76.41.28,1.17.28,2.26.28,1.65,0,2.26-.17,2.73-.74.37-.43.78-1.19,1.08-2.04l.63.09Z"/>
    <path class="st0" d="M481.68,89.99c-1.3.09-1.8.37-1.89,1.28-.07.59-.13,1.52-.13,3.51v1.78c0,2.56-.39,4.41-1.63,5.73-1.02,1.04-2.47,1.5-3.91,1.5-1.28,0-2.52-.3-3.47-1.04-1.3-1-1.91-2.6-1.91-5.17v-5.4c0-1.95-.2-2.04-1.89-2.19v-.61h5.6v.61c-1.69.11-1.87.24-1.87,2.19v4.93c0,3.49,1.39,5.51,4.08,5.51,3.12,0,4.1-2.62,4.1-6.21v-1.63c0-2-.06-2.91-.15-3.58-.11-.85-.56-1.11-2.1-1.21v-.61h5.16v.61Z"/>
    <path class="st0" d="M494.39,100.06c-.13.72-.56,2.76-.76,3.43h-10.46v-.61c1.97-.15,2.15-.33,2.15-2.1v-8.64c0-1.93-.17-2.02-1.87-2.15v-.61h9.68c0,.54.11,2.02.17,3.12l-.63.09c-.2-.91-.41-1.39-.69-1.84-.3-.48-.89-.63-2.45-.63h-1.65c-.67,0-.72.07-.72.69v4.95h2.04c1.97,0,2.08-.17,2.34-1.63h.63v4.14h-.63c-.28-1.54-.43-1.67-2.32-1.67h-2.06v4.1c0,1.02.13,1.5.52,1.76.41.28,1.17.28,2.26.28,1.65,0,2.26-.17,2.73-.74.37-.43.78-1.19,1.08-2.04l.63.09Z"/>
    <path class="st0" d="M508.91,103.66c-.26,0-.52,0-.76-.02-1.65-.09-2.54-.56-3.51-1.97-.76-1.06-1.54-2.41-2.19-3.47-.37-.61-.74-.87-1.84-.87h-.69v3.45c0,1.84.2,1.97,1.91,2.1v.61h-5.69v-.61c1.78-.13,1.95-.26,1.95-2.1v-8.72c0-1.84-.17-1.91-1.87-2.06v-.61h5.38c1.58,0,2.65.2,3.45.74.89.56,1.45,1.54,1.45,2.84,0,1.87-1.17,3.02-2.76,3.73.37.69,1.28,2.15,1.93,3.12.78,1.13,1.21,1.69,1.76,2.26.56.65,1.08.89,1.56,1.02l-.09.56ZM500.95,96.63c1.08,0,1.8-.17,2.34-.63.85-.65,1.19-1.52,1.19-2.69,0-2.34-1.54-3.21-3.17-3.21-.63,0-1,.09-1.17.22-.17.11-.24.35-.24.96v5.36h1.04Z"/>
    <path class="st0" d="M517.46,92.66c-.37-1.37-.96-2.86-2.84-2.86-1.67,0-2.41,1.19-2.41,2.37,0,1.58,1.04,2.34,2.76,3.21,1.71.89,3.75,1.89,3.75,4.34,0,2.28-1.93,4.1-4.82,4.1-.89,0-1.61-.17-2.13-.33-.54-.17-.87-.35-1.08-.46-.15-.46-.43-2.32-.59-3.36l.65-.15c.33,1.32,1.3,3.51,3.56,3.51,1.65,0,2.6-1.02,2.6-2.6s-1.19-2.37-2.82-3.23c-1.39-.76-3.58-1.82-3.58-4.28,0-2.08,1.67-3.86,4.47-3.86,1,0,1.91.24,2.73.5.09.76.2,1.63.37,2.99l-.63.11Z"/>
    <path class="st0" d="M531.91,92.74c-.22-1.04-.43-1.58-.67-1.93-.37-.52-.72-.69-2.37-.69h-1.52v10.7c0,1.71.17,1.93,2.21,2.06v.61h-6.21v-.61c1.97-.13,2.15-.35,2.15-2.06v-10.7h-1.34c-1.8,0-2.24.2-2.52.67-.26.37-.43,1-.69,1.95h-.63c.11-1.3.22-2.71.26-3.91h.43c.3.5.59.54,1.19.54h8.57c.58,0,.76-.13,1.08-.54h.46c.02,1,.11,2.58.24,3.84l-.65.07Z"/>
    <path class="st0" d="M547.15,103.66c-.26,0-.52,0-.76-.02-1.65-.09-2.54-.56-3.52-1.97-.76-1.06-1.54-2.41-2.19-3.47-.37-.61-.74-.87-1.84-.87h-.69v3.45c0,1.84.2,1.97,1.91,2.1v.61h-5.69v-.61c1.78-.13,1.95-.26,1.95-2.1v-8.72c0-1.84-.17-1.91-1.87-2.06v-.61h5.38c1.58,0,2.65.2,3.45.74.89.56,1.45,1.54,1.45,2.84,0,1.87-1.17,3.02-2.76,3.73.37.69,1.28,2.15,1.93,3.12.78,1.13,1.21,1.69,1.76,2.26.56.65,1.08.89,1.56,1.02l-.09.56ZM539.18,96.63c1.08,0,1.8-.17,2.34-.63.85-.65,1.19-1.52,1.19-2.69,0-2.34-1.54-3.21-3.17-3.21-.63,0-1,.09-1.17.22-.17.11-.24.35-.24.96v5.36h1.04Z"/>
    <path class="st0" d="M556.83,103.48v-.61c1.37-.17,1.56-.35,1.28-1.19-.28-.85-.72-2.02-1.19-3.34h-4.62c-.35.98-.67,1.89-.96,2.8-.46,1.37-.28,1.58,1.37,1.74v.61h-4.73v-.61c1.39-.2,1.69-.33,2.43-2.26l4.49-11.37.67-.19c1.35,3.71,2.8,7.85,4.19,11.63.67,1.87.98,2.06,2.39,2.19v.61h-5.32ZM554.7,91.88h-.04c-.69,1.84-1.37,3.75-2.04,5.53h3.99l-1.91-5.53Z"/>
    <path class="st0" d="M573.73,92.74c-.22-1.04-.43-1.58-.67-1.93-.37-.52-.72-.69-2.37-.69h-1.52v10.7c0,1.71.17,1.93,2.21,2.06v.61h-6.21v-.61c1.97-.13,2.15-.35,2.15-2.06v-10.7h-1.34c-1.8,0-2.24.2-2.52.67-.26.37-.43,1-.69,1.95h-.63c.11-1.3.22-2.71.26-3.91h.43c.3.5.59.54,1.19.54h8.57c.58,0,.76-.13,1.08-.54h.46c.02,1,.11,2.58.24,3.84l-.65.07Z"/>
    <path class="st0" d="M587.21,100.06c-.13.72-.56,2.76-.76,3.43h-10.46v-.61c1.97-.15,2.15-.33,2.15-2.1v-8.64c0-1.93-.17-2.02-1.87-2.15v-.61h9.68c0,.54.11,2.02.17,3.12l-.63.09c-.2-.91-.41-1.39-.69-1.84-.3-.48-.89-.63-2.45-.63h-1.65c-.67,0-.72.07-.72.69v4.95h2.04c1.97,0,2.08-.17,2.34-1.63h.63v4.14h-.63c-.28-1.54-.43-1.67-2.32-1.67h-2.06v4.1c0,1.02.13,1.5.52,1.76.41.28,1.17.28,2.26.28,1.65,0,2.26-.17,2.73-.74.37-.43.78-1.19,1.08-2.04l.63.09Z"/>
    <path class="st0" d="M603.13,97.54c-1.3.17-1.39.28-1.39,1.56v1.87c0,.76.02,1.45.15,2.06-1.35.3-3.12.78-4.86.78-4.77,0-7.96-2.97-7.96-7.29,0-5.01,4.04-7.46,8.29-7.46,1.82,0,3.47.48,4.19.63.07.76.17,1.95.33,3.38l-.61.13c-.52-2.67-2.15-3.38-4.23-3.38-3.32,0-5.75,2.45-5.75,6.44,0,3.15,1.84,6.79,6.03,6.79.74,0,1.41-.13,1.89-.37.43-.24.69-.52.69-1.43v-1.84c0-1.56-.13-1.71-2.28-1.87v-.61h5.51v.61Z"/>
    <path class="st0" d="M604.89,103.48v-.61c1.78-.13,1.95-.26,1.95-2.1v-8.68c0-1.84-.17-1.97-1.95-2.1v-.61h5.75v.61c-1.78.13-1.95.26-1.95,2.1v8.68c0,1.87.17,1.97,1.95,2.1v.61h-5.75Z"/>
    <path class="st0" d="M623.75,100.06c-.13.72-.56,2.76-.76,3.43h-10.46v-.61c1.97-.15,2.15-.33,2.15-2.1v-8.64c0-1.93-.17-2.02-1.87-2.15v-.61h9.68c0,.54.11,2.02.17,3.12l-.63.09c-.2-.91-.41-1.39-.69-1.84-.3-.48-.89-.63-2.45-.63h-1.65c-.67,0-.72.07-.72.69v4.95h2.04c1.97,0,2.08-.17,2.34-1.63h.63v4.14h-.63c-.28-1.54-.43-1.67-2.32-1.67h-2.06v4.1c0,1.02.13,1.5.52,1.76.41.28,1.17.28,2.26.28,1.65,0,2.26-.17,2.73-.74.37-.43.78-1.19,1.08-2.04l.63.09Z"/>
  </g>
  <g>
    <g>
      <path class="st1" d="M0,37.23v4.28l21.28,5.39c.32-1.33.76-2.65,1.3-3.95L0,37.23Z"/>
      <path class="st1" d="M0,46.53v4.28l21.29,5.39c-.33-1.45-.52-2.94-.55-4.42L0,46.53Z"/>
      <path class="st1" d="M0,0v4.28l44.77,11.33c2.12-1.18,4.15-2.07,6.03-2.75L0,0Z"/>
      <path class="st1" d="M39.48,19.29L0,9.3v4.28l36.12,9.14c.95-1.16,2.07-2.32,3.35-3.43Z"/>
      <path class="st1" d="M51.26,26.55v-4.28l-7.1-1.8c-.93,1.14-1.41,2.48-1.62,3.87l8.72,2.21Z"/>
      <path class="st1" d="M49.12,35.32l2.15.54v-4.28l-7.39-1.87c1.22,1.76,3.1,3.68,5.25,5.6Z"/>
      <path class="st1" d="M33.44,27.07L0,18.61v4.28l30.68,7.76c.81-.89,1.61-1.69,2.37-2.39.1-.38.24-.79.4-1.19Z"/>
      <path class="st1" d="M0,27.91v4.28l24.84,6.29c.75-1.28,1.57-2.51,2.42-3.67L0,27.91Z"/>
      <path class="st1" d="M23.67,62.31c-.11-.18-.2-.37-.3-.56L0,55.84v4.27l27.48,6.95c-1.65-1.85-2.95-3.48-3.81-4.75Z"/>
      <path class="st1" d="M0,65.14v1.96s0,.02,0,.04,0,.02,0,.04c0,.75.02,1.51.05,2.26l40.95,10.36c-2.47-1.98-4.82-4.03-6.96-6.04L0,65.14Z"/>
      <path class="st1" d="M.52,74.59c.21,1.52.49,3.01.83,4.49l49.91,12.63v-3.35c-.47-.43-.94-.86-1.41-1.28L.52,74.59Z"/>
      <path class="st1" d="M51.26,96.73L2.92,84.49c.57,1.63,1.21,3.22,1.92,4.77l46.42,11.75v-4.28Z"/>
      <path class="st1" d="M39.66,106.21c3.86,2.33,7.9,2.87,10.48,2.87.39,0,.76-.01,1.13-.03v-3.01l-43.27-10.95c1.14,1.82,2.39,3.57,3.74,5.23l22.36,5.66c.49-.27.99-.52,1.52-.72.73-.27,2.02-.14,4.04.96Z"/>
      <path class="st1" d="M49.42,114.87c-1,.34-1.93.6-2.77.78-2.39.55-3.67.96-6.8.96-.18,0-.34,0-.51-.01l9.97,2.53,1.96.5v-4.28l-1.85-.47Z"/>
      <path class="st1" d="M27.9,112.09c0-.38.53-1.26,1.44-2.3l-11.09-2.8c3.18,2.72,6.68,5.05,10.45,6.92l.63.16c-.99-.74-1.43-1.47-1.43-1.97Z"/>
    </g>
    <g>
      <path class="st4" d="M70.09,12.49l32.44-8.21V0l-43.41,10.99c.76-.07,1.45-.09,2.05-.09,2.96,0,6.04.4,8.92,1.6Z"/>
      <path class="st4" d="M68.34,21.28c-.92.55-3.68,0-4.42-.14-.81-.42-1.77-.9-2.78-1.38l-9.88,2.5v4.28l51.26-12.97v-4.28l-29.2,7.39c-1.02,1.77-4.08,4.03-4.99,4.6Z"/>
      <polygon class="st4" points="51.26 35.86 102.53 22.89 102.53 18.61 51.26 31.58 51.26 35.86"/>
      <path class="st4" d="M102.53,32.18v-4.28l-47.78,12.09c1.45,1.14,2.86,2.22,4.16,3.23l43.62-11.04Z"/>
      <path class="st4" d="M102.53,41.51v-4.28l-38.8,9.82c1.22.99,2.53,2.1,3.86,3.3l34.93-8.84Z"/>
      <path class="st4" d="M74.79,57.83l27.74-7.02v-4.28l-30.84,7.8c1.07,1.12,2.11,2.29,3.1,3.5Z"/>
      <path class="st4" d="M102.53,60.11v-4.27l-24.63,6.23c.79,1.23,1.5,2.49,2.09,3.75l22.54-5.71Z"/>
      <path class="st4" d="M102.53,67.1v-1.96l-20.96,5.3c.23,1.08.36,2.16.36,3.22,0,.32,0,.65-.02.97l20.56-5.2c.03-.75.05-1.5.05-2.26v-.07Z"/>
      <path class="st4" d="M51.26,91.71l2.76-.7c-.89-.89-1.82-1.78-2.76-2.65v3.35Z"/>
      <path class="st4" d="M101.17,79.08c.34-1.47.62-2.97.83-4.49l-20.64,5.22c-.3,1.61-.7,3.14-1.18,4.58l20.99-5.31Z"/>
      <path class="st4" d="M51.26,96.73v4.28l8.97-2.27c-.46-1.04-1.33-2.29-2.46-3.66l-6.51,1.64Z"/>
      <path class="st4" d="M97.69,89.26c.72-1.55,1.36-3.14,1.93-4.77l-21.86,5.53c-1.01,1.91-2.09,3.59-3.11,5.06l23.04-5.83Z"/>
      <path class="st4" d="M60.04,103.82l-8.78,2.22v3.01c4.79-.24,7.65-2.05,8.78-5.23Z"/>
      <path class="st4" d="M90.79,100.32c1.35-1.66,2.6-3.41,3.74-5.23l-24.6,6.22c-1.9,2.14-4.16,4.14-6.55,5.94l27.41-6.93Z"/>
      <path class="st4" d="M51.26,115.33v4.28s1.95-.5,1.95-.5h0l20.6-5.21c3.77-1.87,7.28-4.2,10.45-6.92l-33.01,8.35Z"/>
    </g>
    <path class="st2" d="M33.59,34.96c-.73-.68-1.1,0-1.28.13-1.84,2.19-3.31,5.88-3.31,9.44,0,10.39,10.48,20.11,21.14,28.45.31.23.62.46.93.7v-22.61c-6.69-5.49-14.52-11.59-17.48-16.1Z"/>
    <path class="st3" d="M69.99,92.4c0,.13.74.55,1.11,0,1.83-2.33,3.31-6.02,3.31-9.99,0-11.08-9.37-18.87-18.75-27.49-1.4-1.23-2.96-2.52-4.58-3.86v22.61c8.79,6.66,16.25,14.09,18.92,18.72Z"/>
  </g>
</svg>