<?xml version="1.0" encoding="utf-8"?>
<svg xmlns="http://www.w3.org/2000/svg" data-name="Group 18" height="56.483" id="Group_18" viewBox="0 0 171.748 56.483" width="171.748">
  <g data-name="Group 1" id="Group_1" transform="translate(0 0)">
    <path d="M36.422,57.014a10.58,10.58,0,0,1-10.474-10.9c0-6.23,4.459-10.945,10.474-10.945,6.1,0,10.474,4.715,10.474,10.945,0,6.185-4.589,10.9-10.474,10.9m-.043-26.689c-9.132,0-16.229,6.921-16.229,15.7,0,9,6.925,15.7,16.229,15.7s16.272-6.748,16.272-15.7c0-9.085-6.838-15.7-16.272-15.7" data-name="Path 1" fill="#002c57" id="Path_1" transform="translate(-20.149 -25.229)"/>
    <path d="M213.228,57.014a10.58,10.58,0,0,1-10.474-10.9c0-6.23,4.457-10.945,10.474-10.945,6.1,0,10.472,4.715,10.472,10.945,0,6.185-4.587,10.9-10.472,10.9m-.043-26.689c-9.132,0-16.229,6.921-16.229,15.7,0,9,6.925,15.7,16.229,15.7s16.272-6.748,16.272-15.7c0-9.085-6.839-15.7-16.272-15.7" data-name="Path 2" fill="#002c57" id="Path_2" transform="translate(-103.268 -25.229)"/>
    <path d="M129.027,30.326c-4.384,0-7.772,1.3-9.925,4.048-2.2-2.744-5.64-4.048-10.025-4.048-7.919,0-12.592,4.239-12.592,13.581V58.55a2.7,2.7,0,1,0,5.409,0V43.907c0-6.141,3.028-8.65,7.272-8.65s7.268,2.2,7.268,8.7v14.6a2.7,2.7,0,1,0,5.409,0V43.907c0-6.141,3.032-8.65,7.272-8.65s7.269,2.2,7.269,8.7v14.6a2.7,2.7,0,1,0,5.409,0V43.907c0-9.342-4.847-13.581-12.766-13.581" data-name="Path 3" fill="#002c57" id="Path_3" transform="translate(-56.036 -25.229)"/>
    <path d="M278.966,49.749v-5.84c0-6.143,3.032-8.652,7.27-8.652s7.273,2.2,7.273,8.7v5.753c-1.431,0-11.86,0-14.542.042m7.185-19.422c-7.922,0-12.593,4.239-12.593,13.581V58.55a2.7,2.7,0,1,0,5.409,0V53.989h14.542V58.55a2.7,2.7,0,1,0,5.409,0V43.908c0-9.342-4.845-13.581-12.766-13.581" data-name="Path 4" fill="#002c57" id="Path_4" transform="translate(-139.28 -25.23)"/>
    <path d="M329.949,23.752h-.871v1.684h.762c.626,0,1.224-.161,1.224-.895,0-.681-.517-.789-1.115-.789m1.2,4.621a2.27,2.27,0,0,1-.137-.651c-.028-.244-.028-.518-.054-.762-.082-.49-.244-.87-.788-.87h-1.089v2.283h-.9V23.1h2.012c.925,0,1.8.163,1.8,1.306a1.209,1.209,0,0,1-.952,1.249c.626.163.762.627.817,1.142.028.271.028.545.054.815a1.581,1.581,0,0,0,.245.76Zm-1.061-6.8a4.214,4.214,0,1,0,4.216,4.213,4.243,4.243,0,0,0-4.216-4.213m0,9.324a5.1,5.1,0,1,1,5.113-5.111,5.141,5.141,0,0,1-5.113,5.111" data-name="Path 5" fill="#002c57" id="Path_5" transform="translate(-163.451 -20.707)"/>
  </g>
  <path d="M176.055,108.575l1.783-.547V110.1h1.483v1.308h-1.483v3.843a1.165,1.165,0,0,0,.209.813.808.808,0,0,0,.6.208,1.414,1.414,0,0,0,.41-.05,1.284,1.284,0,0,0,.267-.108v1.267a2.421,2.421,0,0,1-.5.172,2.953,2.953,0,0,1-.7.072,1.847,1.847,0,0,1-2.071-2.159v-4.058h-1.181V110.1h1.181Zm-5.67,2.747q0-.345-.014-.662c-.009-.21-.024-.4-.043-.561h1.611c.009.221.022.446.036.676s.022.456.022.676h.028a4.2,4.2,0,0,1,.231-.474,1.927,1.927,0,0,1,.374-.475,2.153,2.153,0,0,1,.547-.367,1.7,1.7,0,0,1,.733-.151.879.879,0,0,1,.16.014l.143.029v1.67a1.864,1.864,0,0,0-.5-.072,1.669,1.669,0,0,0-.547.093,1.377,1.377,0,0,0-.5.3,1.5,1.5,0,0,0-.359.56,2.428,2.428,0,0,0-.137.871v4.058h-1.785Zm-3.166,1.842q0-1.972-1.237-1.972a1.028,1.028,0,0,0-.6.173,1.425,1.425,0,0,0-.417.446,1.92,1.92,0,0,0-.237.633,3.656,3.656,0,0,0-.072.72Zm1.353,3.986q-.288.115-.849.295a4.526,4.526,0,0,1-1.367.18,3.619,3.619,0,0,1-1.539-.3,3.013,3.013,0,0,1-1.065-.805,3.307,3.307,0,0,1-.619-1.181,4.924,4.924,0,0,1-.2-1.424,5.471,5.471,0,0,1,.209-1.547,3.941,3.941,0,0,1,.6-1.245,2.892,2.892,0,0,1,.965-.835,2.677,2.677,0,0,1,1.273-.3,3.285,3.285,0,0,1,1.137.194,2.331,2.331,0,0,1,.943.654,3.311,3.311,0,0,1,.648,1.216,6.457,6.457,0,0,1,.237,1.893v.344h-4.288a2.353,2.353,0,0,0,.424,1.49,1.756,1.756,0,0,0,1.46.539,3.208,3.208,0,0,0,1.259-.2,3.411,3.411,0,0,0,.684-.381ZM157,109.279h-.029l-1.583,8.231h-2.173l-2.029-10.044h1.726l1.41,7.741h.029l1.511-7.741h2.245l1.5,7.741h.03l1.467-7.741h1.669L160.7,117.51h-2.2Zm-12.562-.7,1.784-.547V110.1h1.482v1.308h-1.482v3.843a1.168,1.168,0,0,0,.209.813.811.811,0,0,0,.6.208,1.408,1.408,0,0,0,.41-.05,1.254,1.254,0,0,0,.266-.108v1.267a2.4,2.4,0,0,1-.5.172,2.961,2.961,0,0,1-.7.072,1.848,1.848,0,0,1-2.071-2.159v-4.058h-1.18V110.1h1.18Zm-4.259-1.627h1.842V108.7h-1.842Zm.029,3.152H142v7.41h-1.785ZM128.8,111.308c0-.269-.005-.5-.014-.705s-.024-.369-.043-.5h1.785c.01.192.021.386.036.582s.021.392.021.583h.029a2.817,2.817,0,0,1,.267-.446,2.118,2.118,0,0,1,.388-.41,2.087,2.087,0,0,1,.526-.3,1.839,1.839,0,0,1,.691-.122,2.088,2.088,0,0,1,.791.13,2.018,2.018,0,0,1,.533.309,1.5,1.5,0,0,1,.339.388q.122.208.209.352c.086-.125.187-.257.3-.4a2.235,2.235,0,0,1,.957-.669,2.064,2.064,0,0,1,.727-.116,2.227,2.227,0,0,1,1.014.209,1.666,1.666,0,0,1,.654.59,2.663,2.663,0,0,1,.353.928,6.377,6.377,0,0,1,.108,1.223v4.576h-1.784v-4.677a1.935,1.935,0,0,0-.223-1.036.8.8,0,0,0-.727-.346,1.025,1.025,0,0,0-.526.13,1.168,1.168,0,0,0-.374.345,1.617,1.617,0,0,0-.23.5,2.227,2.227,0,0,0-.079.59v4.49h-1.784v-4.677a1.934,1.934,0,0,0-.224-1.036.8.8,0,0,0-.726-.346,1.023,1.023,0,0,0-.526.13,1.161,1.161,0,0,0-.374.345,1.605,1.605,0,0,0-.23.5,2.184,2.184,0,0,0-.079.59v4.49H128.8Zm-8.1-2.734,1.784-.547V110.1h1.483v1.308h-1.483v3.843a1.165,1.165,0,0,0,.209.813.808.808,0,0,0,.6.208,1.42,1.42,0,0,0,.41-.05,1.285,1.285,0,0,0,.267-.108v1.267a2.45,2.45,0,0,1-.5.172,2.97,2.97,0,0,1-.7.072,1.848,1.848,0,0,1-2.072-2.159v-4.058h-1.18V110.1h1.18Zm-8.13-1.857h1.784v4.332h.043c.077-.116.166-.236.267-.36a2.071,2.071,0,0,1,.36-.345,1.778,1.778,0,0,1,.5-.259,2.2,2.2,0,0,1,.712-.1,2.28,2.28,0,0,1,1.051.216,1.749,1.749,0,0,1,.669.6,2.552,2.552,0,0,1,.36.877,4.964,4.964,0,0,1,.108,1.058v4.778h-1.784v-4.447a2.41,2.41,0,0,0-.237-1.237.859.859,0,0,0-.785-.375,1.19,1.19,0,0,0-.589.137,1.1,1.1,0,0,0-.4.375,1.642,1.642,0,0,0-.216.554,3.39,3.39,0,0,0-.065.677v4.316h-1.784Zm-1.094,10.605a5.588,5.588,0,0,1-.762.209,4.885,4.885,0,0,1-.993.093,3.749,3.749,0,0,1-1.576-.3,3,3,0,0,1-1.079-.82,3.37,3.37,0,0,1-.626-1.209,5.262,5.262,0,0,1-.2-1.482,5.168,5.168,0,0,1,.209-1.49,3.331,3.331,0,0,1,.648-1.216,3.1,3.1,0,0,1,1.115-.82,3.937,3.937,0,0,1,1.611-.3,3.875,3.875,0,0,1,.863.1,4.6,4.6,0,0,1,.691.2l-.1,1.411c-.164-.077-.35-.156-.561-.238a1.908,1.908,0,0,0-.69-.122,1.691,1.691,0,0,0-1.482.648,3.144,3.144,0,0,0-.46,1.842,3.6,3.6,0,0,0,.122.963,2.244,2.244,0,0,0,.374.778,1.765,1.765,0,0,0,.633.518,2.031,2.031,0,0,0,.9.187,2.274,2.274,0,0,0,.7-.122,2.708,2.708,0,0,0,.561-.238Zm-8.633-10.375h1.842V108.7h-1.842Zm.029,3.152h1.785v7.41h-1.785Zm-6.389-2.634h1.842v8.576h3.309v1.468H96.482Z" data-name="Path 6" fill="#002c57" id="Path_6" transform="translate(-56.034 -61.142)"/>
</svg>