<?xml version="1.0" encoding="utf-8"?>
<svg xmlns="http://www.w3.org/2000/svg" height="280" preserveAspectRatio="xMidYMid meet" version="1.0" viewBox="0 0 615 209.999996" width="820" zoomAndPan="magnify">
  <defs>
    <clipPath id="6be8298942">
      <path clip-rule="nonzero" d="M 21 74 L 101 74 L 101 155.753906 L 21 155.753906 Z M 21 74"/>
    </clipPath>
    <clipPath id="97699752ee">
      <path clip-rule="nonzero" d="M 209 72 L 284 72 L 284 155.753906 L 209 155.753906 Z M 209 72"/>
    </clipPath>
    <clipPath id="17948a3442">
      <path clip-rule="nonzero" d="M 281 72 L 355 72 L 355 155.753906 L 281 155.753906 Z M 281 72"/>
    </clipPath>
    <clipPath id="e2a5b89b14">
      <path clip-rule="nonzero" d="M 354 54.503906 L 405 54.503906 L 405 155.753906 L 354 155.753906 Z M 354 54.503906"/>
    </clipPath>
    <clipPath id="32f35cce0a">
      <path clip-rule="nonzero" d="M 463 72 L 538 72 L 538 155.753906 L 463 155.753906 Z M 463 72"/>
    </clipPath>
  </defs>
  <g clip-path="url(#6be8298942)">
    <path d="M 65.363281 145.488281 C 59.425781 152.523438 52.261719 155.941406 43.871094 155.746094 C 36.070312 155.644531 30.195312 152.917969 26.242188 147.554688 C 22.292969 142.191406 20.757812 135.007812 21.644531 126.003906 L 30.253906 74.351562 L 54.46875 74.351562 L 45.710938 126.363281 C 45.5625 127.792969 45.5625 129.097656 45.710938 130.28125 C 46.050781 134.316406 48.433594 136.410156 52.851562 136.558594 C 57.953125 136.757812 62.296875 134.738281 65.875 130.503906 L 75.738281 74.351562 L 100.101562 74.351562 L 86.265625 154.195312 L 63.742188 154.195312 L 65.359375 145.488281 Z M 65.363281 145.488281" fill="#191918" fill-opacity="1" fill-rule="nonzero"/>
  </g>
  <path d="M 127.871094 74.277344 L 126.253906 83.871094 C 132.632812 76.34375 140.386719 72.679688 149.511719 72.875 C 154.320312 72.976562 158.273438 74.105469 161.363281 76.269531 C 164.457031 78.433594 166.515625 81.3125 167.546875 84.902344 C 174.5625 76.6875 182.636719 72.675781 191.761719 72.875 C 199.121094 73.019531 204.582031 75.789062 208.140625 81.175781 C 211.695312 86.5625 212.984375 94.152344 212.003906 103.941406 L 203.6875 154.195312 L 179.398438 154.195312 L 187.863281 103.929688 L 188.15625 99.582031 C 188.15625 94.714844 185.875 92.210938 181.3125 92.066406 C 177.042969 92.066406 173.070312 94.25 169.386719 98.625 L 159.746094 154.199219 L 135.457031 154.199219 L 143.847656 104.082031 L 144.144531 99.65625 C 144.144531 94.597656 141.863281 92.066406 137.296875 92.066406 C 133.128906 92.066406 129.199219 94.253906 125.519531 98.628906 L 115.730469 154.203125 L 91.515625 154.203125 L 105.351562 74.359375 L 127.875 74.285156 Z M 127.871094 74.277344" fill="#191918" fill-opacity="1" fill-rule="nonzero"/>
  <g clip-path="url(#97699752ee)">
    <path d="M 254.316406 131.320312 C 254.957031 128.074219 252.453125 125.636719 246.808594 124.015625 L 241.582031 122.6875 C 233.046875 120.425781 226.789062 117.253906 222.8125 113.167969 C 218.835938 109.085938 216.972656 104.242188 217.21875 98.632812 C 217.464844 90.960938 220.863281 84.722656 227.414062 79.925781 C 233.964844 75.128906 241.949219 72.78125 251.371094 72.878906 C 260.742188 72.980469 268.339844 75.363281 274.152344 80.039062 C 279.96875 84.710938 282.921875 91.007812 283.019531 98.929688 L 258.878906 98.855469 C 259.074219 92.558594 256.304688 89.410156 250.558594 89.410156 C 248.105469 89.410156 245.824219 90.136719 243.714844 91.585938 C 241.601562 93.039062 240.351562 94.964844 239.960938 97.378906 C 239.125 101.363281 242.632812 104.09375 250.488281 105.570312 C 257.304688 107.191406 262.582031 109.074219 266.3125 111.210938 C 270.039062 113.351562 272.886719 115.996094 274.847656 119.144531 C 276.808594 122.292969 277.71875 126.082031 277.574219 130.507812 C 277.425781 135.332031 275.851562 139.636719 272.863281 143.421875 C 269.867188 147.210938 265.539062 150.238281 259.871094 152.5 C 254.203125 154.761719 248.058594 155.820312 241.433594 155.671875 C 235.695312 155.625 230.355469 154.417969 225.425781 152.054688 C 220.492188 149.695312 216.644531 146.484375 213.871094 142.425781 C 211.097656 138.367188 209.660156 133.707031 209.566406 128.441406 L 232.089844 128.585938 C 232.1875 135.667969 235.71875 139.164062 242.6875 139.066406 C 245.679688 139.066406 248.234375 138.390625 250.339844 137.035156 C 252.449219 135.683594 253.777344 133.777344 254.316406 131.316406 Z M 254.316406 131.320312" fill="#191918" fill-opacity="1" fill-rule="nonzero"/>
  </g>
  <g clip-path="url(#17948a3442)">
    <path d="M 316.410156 155.671875 C 309.292969 155.625 302.949219 153.9375 297.382812 150.617188 C 291.8125 147.292969 287.605469 142.671875 284.757812 136.742188 C 281.914062 130.816406 280.78125 124.285156 281.371094 117.152344 L 281.59375 115.082031 C 282.917969 101.949219 287.46875 91.558594 295.246094 83.90625 C 303.023438 76.257812 312.554688 72.578125 323.84375 72.871094 C 330.664062 72.972656 336.503906 74.707031 341.363281 78.082031 C 346.21875 81.457031 349.777344 86.113281 352.035156 92.046875 C 354.289062 97.984375 355.027344 104.648438 354.242188 112.039062 L 352.839844 122.164062 L 305.441406 122.164062 C 305.539062 126.34375 306.714844 129.738281 308.972656 132.34375 C 311.230469 134.949219 314.519531 136.332031 318.835938 136.476562 C 325.851562 136.675781 332.15625 133.96875 337.75 128.359375 L 347.90625 141.824219 C 344.910156 146.089844 340.730469 149.441406 335.355469 151.871094 C 329.980469 154.296875 324.101562 155.5625 317.726562 155.660156 L 316.402344 155.660156 Z M 322.296875 92.066406 C 318.863281 91.96875 315.882812 93.042969 313.355469 95.296875 C 310.828125 97.546875 308.628906 101.320312 306.769531 106.605469 L 330.984375 106.605469 L 331.425781 104.472656 C 331.71875 102.761719 331.765625 101.144531 331.570312 99.628906 C 330.734375 94.738281 327.640625 92.214844 322.292969 92.066406 Z M 322.296875 92.066406" fill="#191918" fill-opacity="1" fill-rule="nonzero"/>
  </g>
  <g clip-path="url(#e2a5b89b14)">
    <path d="M 395.015625 54.503906 L 391.554688 74.351562 L 404.292969 74.351562 L 401.273438 93.546875 L 388.535156 93.546875 L 382.351562 128.296875 C 382.011719 130.804688 382.167969 132.699219 382.832031 133.976562 C 383.492188 135.257812 385.152344 135.945312 387.796875 136.046875 C 388.828125 136.09375 390.9375 135.972656 394.128906 135.675781 L 392.359375 153.679688 C 388.289062 155.007812 383.945312 155.625 379.335938 155.527344 C 371.828125 155.425781 366.207031 153.214844 362.476562 148.886719 C 358.75 144.554688 357.226562 138.679688 357.914062 131.25 L 364.390625 93.546875 L 354.53125 93.546875 L 357.472656 74.355469 L 367.335938 74.355469 L 370.792969 54.507812 L 395.007812 54.507812 Z M 395.015625 54.503906" fill="#191918" fill-opacity="1" fill-rule="nonzero"/>
  </g>
  <path d="M 428.933594 134.859375 L 463.820312 135.007812 L 460.507812 154.191406 L 394.703125 154.191406 L 397.277344 139.289062 L 439.160156 93.683594 L 395.746094 93.539062 L 399.0625 74.351562 L 473.535156 74.351562 L 471.035156 88.886719 Z M 428.933594 134.859375" fill="#191918" fill-opacity="1" fill-rule="nonzero"/>
  <g clip-path="url(#32f35cce0a)">
    <path d="M 499.0625 155.671875 C 491.945312 155.625 485.601562 153.9375 480.035156 150.617188 C 474.464844 147.292969 470.257812 142.671875 467.410156 136.742188 C 464.566406 130.816406 463.433594 124.285156 464.023438 117.152344 L 464.246094 115.082031 C 465.570312 101.949219 470.121094 91.558594 477.898438 83.90625 C 485.679688 76.257812 495.207031 72.578125 506.496094 72.871094 C 513.316406 72.972656 519.15625 74.707031 524.015625 78.082031 C 528.871094 81.457031 532.429688 86.113281 534.6875 92.046875 C 536.945312 97.984375 537.679688 104.648438 536.894531 112.039062 L 535.496094 122.164062 L 488.09375 122.164062 C 488.191406 126.34375 489.371094 129.738281 491.625 132.34375 C 493.882812 134.949219 497.171875 136.332031 501.488281 136.476562 C 508.503906 136.675781 514.808594 133.96875 520.402344 128.359375 L 530.558594 141.824219 C 527.5625 146.089844 523.382812 149.441406 518.007812 151.871094 C 512.636719 154.296875 506.757812 155.5625 500.378906 155.660156 L 499.054688 155.660156 Z M 504.949219 92.066406 C 501.515625 91.96875 498.535156 93.042969 496.007812 95.296875 C 493.480469 97.546875 491.28125 101.320312 489.421875 106.605469 L 513.636719 106.605469 L 514.078125 104.472656 C 514.371094 102.761719 514.421875 101.144531 514.222656 99.628906 C 513.386719 94.738281 510.296875 92.214844 504.945312 92.066406 Z M 504.949219 92.066406" fill="#191918" fill-opacity="1" fill-rule="nonzero"/>
  </g>
  <path d="M 590.433594 96.859375 C 587.835938 96.46875 585.332031 96.222656 582.925781 96.125 C 575.664062 95.929688 570.121094 98.4375 566.292969 103.652344 L 557.3125 154.199219 L 533.097656 154.199219 L 546.933594 74.355469 L 569.53125 74.28125 L 567.6875 84.761719 C 572.890625 76.695312 579.023438 72.660156 586.089844 72.660156 C 588.101562 72.660156 590.605469 73.003906 593.597656 73.691406 L 590.433594 96.863281 Z M 590.433594 96.859375" fill="#191918" fill-opacity="1" fill-rule="nonzero"/>
</svg>